<svg height="512pt" viewBox="-39 0 512 512" width="512pt" xmlns="http://www.w3.org/2000/svg"><path d="m329.699219 0c-53.621094 0-97.984375 40.417969-104.238281 92.378906-19.125-19.941406-46.019532-32.378906-75.761719-32.378906h-75v15c0 57.890625 47.109375 105 105 105h45v75h30v-135h45c57.890625 0 105-47.109375 105-105v-15zm0 0" fill="#7fe881"/><path d="m404.699219 15v-15h-75c-38.152344 0-71.613281 20.464844-90 50.992188v204.007812h15v-135h45c57.890625 0 105-47.109375 105-105zm0 0" fill="#1fbf66"/><path d="m369.601562 337.5c-16.800781-57.300781-69.902343-97.5-129.902343-97.5-62.398438 0-116.097657 42.300781-131.097657 102.597656l-.601562 2.402344 8.101562 110.699219h186.296876l69-111.601563zm0 0" fill="#6099b1"/><path d="m371.398438 344.097656-69 111.601563h-62.699219v-215.699219c60 0 113.101562 40.199219 129.902343 97.5zm0 0" fill="#3b4a51"/><path d="m433.5 271.199219-110.101562 209.800781h-190.199219l-37.5 31-95.699219-96.199219 92.101562-84.601562h208.199219l-31.5 59.800781h-96v30.199219h114.300781l58.5-111.898438c12.296876-23.699219 36.597657-38.101562 62.996094-38.101562zm0 0" fill="#ffcebf"/><g fill="#ffa78f"><path d="m268.800781 391h-29.101562v-59.800781h60.601562zm0 0"/><path d="m433.5 271.199219-110.101562 209.800781h-83.699219v-59.800781h47.402343l58.5-111.898438c12.296876-23.703125 36.597657-38.101562 63-38.101562zm0 0"/></g></svg>